<svg xmlns="http://www.w3.org/2000/svg" viewBox="1167 896 19 19">
  <defs>
    <style>
      .cls-1 {
        fill: none;
      }

      .cls-2 {
        fill: #4a4a4a;
      }
    </style>
  </defs>
  <g id="ic_local_dining_black_24px" transform="translate(1167 896)">
    <path id="Path_177" data-name="Path 177" class="cls-1" d="M0,0H19V19H0Z"/>
    <path id="Path_178" data-name="Path 178" class="cls-2" d="M6.983,11.214l2.24-2.24L3.666,3.424a3.173,3.173,0,0,0,0,4.481Zm5.367-1.433a3.849,3.849,0,0,0,4.172-1.092c1.512-1.512,1.805-3.681.641-4.845s-3.325-.871-4.845.641a3.849,3.849,0,0,0-1.093,4.172L3.5,16.383,4.616,17.5l5.455-5.439,5.447,5.447,1.116-1.116-5.447-5.447Z" transform="translate(-0.571 -0.653)"/>
  </g>
</svg>
