<svg xmlns="http://www.w3.org/2000/svg" viewBox="-613 890 19 19">
  <defs>
    <style>
      .cls-1 {
        fill: #4a4a4a;
      }

      .cls-2 {
        fill: none;
      }
    </style>
  </defs>
  <g id="ic_event_black_24px" transform="translate(-626 813)">
    <path id="Path_128" data-name="Path 128" class="cls-1" d="M14.083,9.708H10.125v3.958h3.958ZM13.292,1V2.583H6.958V1H5.375V2.583H4.583A1.576,1.576,0,0,0,3.008,4.167L3,15.25a1.583,1.583,0,0,0,1.583,1.583H15.667A1.588,1.588,0,0,0,17.25,15.25V4.167a1.588,1.588,0,0,0-1.583-1.583h-.792V1Zm2.375,14.25H4.583V6.542H15.667Z" transform="translate(12.375 76.792)"/>
    <path id="Path_129" data-name="Path 129" class="cls-2" d="M0,0H19V19H0Z" transform="translate(13 77)"/>
  </g>
</svg>
