<svg xmlns="http://www.w3.org/2000/svg" viewBox="-172 75.4 19 19">
  <defs>
    <style>
      .cls-1 {
        fill: none;
      }

      .cls-2 {
        fill: #4a4a4a;
      }
    </style>
  </defs>
  <g id="ic_event_note_black_24px" transform="translate(-181 -65)">
    <path id="Path_622" data-name="Path 622" class="cls-1" d="M0,0H19V19H0Z" transform="translate(9 140.4)"/>
    <path id="Path_623" data-name="Path 623" class="cls-2" d="M14.083,8.035H6.167v2.09h7.917ZM15.667,3H4.583A1.576,1.576,0,0,0,3.008,4.583L3,15.667A1.583,1.583,0,0,0,4.583,17.25H15.667a1.588,1.588,0,0,0,1.583-1.583V4.583A1.588,1.588,0,0,0,15.667,3Zm0,12.667H4.583V5.047H15.667Zm-3.958-3.958H6.167v1.583h5.542Z" transform="translate(8.375 139.775)"/>
  </g>
</svg>
