<svg xmlns="http://www.w3.org/2000/svg" xmlns:xlink="http://www.w3.org/1999/xlink" viewBox="308 311 44 44">
  <defs>
    <style>
      .cls-1 {
        clip-path: url(#clip-Info_1);
      }

      .cls-2 {
        fill: #95989a;
      }
    </style>
    <clipPath id="clip-Info_1">
      <rect x="308" y="311" width="44" height="44"/>
    </clipPath>
  </defs>
  <g id="Info_1" data-name="Info – 1" class="cls-1">
    <path id="bookmarks" class="cls-2" d="M23.957,2.865c-.048-.143-.719-3.327-6.714-3.565h-.1a8.067,8.067,0,0,0-5.419,2.282A8.055,8.055,0,0,0,6.357-.7H6.214C.219-.462-.452,2.722-.5,2.865V21.259l.048.1a1.94,1.94,0,0,0,.575.665,1.175,1.175,0,0,0,1.295.1c3.549-2.186,5.179-2.567,5.946-2.567,2.254,0,3.6,2.947,3.692,3.137v.048h1.391c0-.048,1.391-3.185,3.692-3.185.767-.048,2.4.38,5.946,2.567a1.18,1.18,0,0,0,1.295-.1,1.585,1.585,0,0,0,.575-.665l.048-.1V2.96ZM7.364,18.645C6.07,18.6,3.96,19.5.891,21.355a.3.3,0,0,1-.192-.1c-.1-.048-.144-.143-.24-.238V3.007c.1-.285.863-2.567,5.754-2.757h.144A6.889,6.889,0,0,1,11.249,2.39V21.117A5.015,5.015,0,0,0,7.364,18.645ZM23,21.022a.575.575,0,0,1-.24.238.3.3,0,0,1-.192.1C19.5,19.5,17.387,18.6,16.092,18.645c-1.87,0-3.213,1.473-3.932,2.567V2.485A6.739,6.739,0,0,1,17.1.3h.1C22.086.488,22.9,2.77,22.95,3.055V21.022Z" transform="translate(318.5 321.771)"/>
  </g>
</svg>
