<svg xmlns="http://www.w3.org/2000/svg" xmlns:xlink="http://www.w3.org/1999/xlink" viewBox="23 311 44 44">
  <defs>
    <style>
      .cls-1 {
        clip-path: url(#clip-Search_1);
      }

      .cls-2 {
        fill: #929292;
      }

      .cls-3 {
        fill: none;
      }
    </style>
    <clipPath id="clip-Search_1">
      <rect x="23" y="311" width="44" height="44"/>
    </clipPath>
  </defs>
  <g id="Search_1" data-name="Search – 1" class="cls-1">
    <g id="Symbol_1" data-name="Symbol 1" transform="translate(-307 290)">
      <path id="Search_icon" data-name="Search icon" class="cls-2" d="M-345.923,375.933a7.763,7.763,0,0,0,1.786-4.917,8,8,0,0,0-8.082-7.917,8.051,8.051,0,0,0-8.082,7.917,8.051,8.051,0,0,0,8.082,7.917,8.6,8.6,0,0,0,5.019-1.667l6.465,6.333,1.361-1.333Zm-6.38,2.167a7.152,7.152,0,0,1-7.231-7.083,7.152,7.152,0,0,1,7.231-7.083,7.152,7.152,0,0,1,7.231,7.083A7.046,7.046,0,0,1-352.3,378.1Z" transform="translate(702.3 -330.1)"/>
      <rect id="Rectangle_1" data-name="Rectangle 1" class="cls-3" width="44" height="44" transform="translate(330 21)"/>
    </g>
  </g>
</svg>
